# MagicaVoxel @ ephtracy

# material
mtllib Track.mtl
usemtl palette

# normals
vn -1 0 0
vn 1 0 0
vn 0 0 1
vn 0 0 -1
vn 0 -1 0
vn 0 1 0

# texcoords
vt 0.970703 0.5
vt 0.974609 0.5
vt 0.982422 0.5

# verts
v -7.5 1 5.5
v -7.5 1 4.5
v -7.5 1 -1.5
v -7.5 1 -2.5
v -7.5 2 5.5
v -7.5 2 4.5
v -7.5 2 -1.5
v -7.5 2 -2.5
v -6.5 0 5.5
v -6.5 0 -2.5
v -6.5 1 5.5
v -6.5 1 4.5
v -6.5 1 -1.5
v -6.5 1 -2.5
v -3.5 0 5.5
v -3.5 0 -2.5
v -3.5 1 5.5
v -3.5 1 4.5
v -3.5 1 -1.5
v -3.5 1 -2.5
v -0.5 0 5.5
v -0.5 0 -2.5
v -0.5 1 5.5
v -0.5 1 4.5
v -0.5 1 -1.5
v -0.5 1 -2.5
v 2.5 0 5.5
v 2.5 0 -2.5
v 2.5 1 5.5
v 2.5 1 4.5
v 2.5 1 -1.5
v 2.5 1 -2.5
v 5.5 0 5.5
v 5.5 0 -2.5
v 5.5 1 5.5
v 5.5 1 4.5
v 5.5 1 -1.5
v 5.5 1 -2.5
v 8.5 0 5.5
v 8.5 0 -2.5
v 8.5 1 5.5
v 8.5 1 4.5
v 8.5 1 -1.5
v 8.5 1 -2.5
v 11.5 0 5.5
v 11.5 0 -2.5
v 11.5 1 5.5
v 11.5 1 4.5
v 11.5 1 -1.5
v 11.5 1 -2.5
v 14.5 0 5.5
v 14.5 0 -2.5
v 14.5 1 5.5
v 14.5 1 4.5
v 14.5 1 -1.5
v 14.5 1 -2.5
v 17.5 0 5.5
v 17.5 0 -2.5
v 17.5 1 5.5
v 17.5 1 4.5
v 17.5 1 -1.5
v 17.5 1 -2.5
v 20.5 0 5.5
v 20.5 0 -2.5
v 20.5 1 5.5
v 20.5 1 4.5
v 20.5 1 -1.5
v 20.5 1 -2.5
v -5.5 0 5.5
v -5.5 0 -2.5
v -5.5 1 5.5
v -5.5 1 4.5
v -5.5 1 -1.5
v -5.5 1 -2.5
v -2.5 0 5.5
v -2.5 0 -2.5
v -2.5 1 5.5
v -2.5 1 4.5
v -2.5 1 -1.5
v -2.5 1 -2.5
v 0.5 0 5.5
v 0.5 0 -2.5
v 0.5 1 5.5
v 0.5 1 4.5
v 0.5 1 -1.5
v 0.5 1 -2.5
v 3.5 0 5.5
v 3.5 0 -2.5
v 3.5 1 5.5
v 3.5 1 4.5
v 3.5 1 -1.5
v 3.5 1 -2.5
v 6.5 0 5.5
v 6.5 0 -2.5
v 6.5 1 5.5
v 6.5 1 4.5
v 6.5 1 -1.5
v 6.5 1 -2.5
v 9.5 0 5.5
v 9.5 0 -2.5
v 9.5 1 5.5
v 9.5 1 4.5
v 9.5 1 -1.5
v 9.5 1 -2.5
v 12.5 0 5.5
v 12.5 0 -2.5
v 12.5 1 5.5
v 12.5 1 4.5
v 12.5 1 -1.5
v 12.5 1 -2.5
v 15.5 0 5.5
v 15.5 0 -2.5
v 15.5 1 5.5
v 15.5 1 4.5
v 15.5 1 -1.5
v 15.5 1 -2.5
v 18.5 0 5.5
v 18.5 0 -2.5
v 18.5 1 5.5
v 18.5 1 4.5
v 18.5 1 -1.5
v 18.5 1 -2.5
v 21.5 0 5.5
v 21.5 0 -2.5
v 21.5 1 5.5
v 21.5 1 4.5
v 21.5 1 -1.5
v 21.5 1 -2.5
v 22.5 1 5.5
v 22.5 1 4.5
v 22.5 1 -1.5
v 22.5 1 -2.5
v 22.5 2 5.5
v 22.5 2 4.5
v 22.5 2 -1.5
v 22.5 2 -2.5
v -7.5 1 5.5
v -7.5 2 5.5
v -6.5 0 5.5
v -6.5 1 5.5
v -6.5 2 5.5
v -5.5 0 5.5
v -5.5 1 5.5
v -5.5 2 5.5
v -3.5 0 5.5
v -3.5 1 5.5
v -2.5 0 5.5
v -2.5 1 5.5
v -0.5 0 5.5
v -0.5 1 5.5
v 0.5 0 5.5
v 0.5 1 5.5
v 2.5 0 5.5
v 2.5 1 5.5
v 3.5 0 5.5
v 3.5 1 5.5
v 5.5 0 5.5
v 5.5 1 5.5
v 6.5 0 5.5
v 6.5 1 5.5
v 8.5 0 5.5
v 8.5 1 5.5
v 9.5 0 5.5
v 9.5 1 5.5
v 11.5 0 5.5
v 11.5 1 5.5
v 12.5 0 5.5
v 12.5 1 5.5
v 14.5 0 5.5
v 14.5 1 5.5
v 15.5 0 5.5
v 15.5 1 5.5
v 17.5 0 5.5
v 17.5 1 5.5
v 18.5 0 5.5
v 18.5 1 5.5
v 20.5 0 5.5
v 20.5 1 5.5
v 21.5 0 5.5
v 21.5 1 5.5
v 22.5 1 5.5
v 22.5 2 5.5
v -7.5 1 -1.5
v -7.5 2 -1.5
v -6.5 1 -1.5
v -6.5 2 -1.5
v -5.5 1 -1.5
v -5.5 2 -1.5
v -3.5 1 -1.5
v -2.5 1 -1.5
v -0.5 1 -1.5
v 0.5 1 -1.5
v 2.5 1 -1.5
v 3.5 1 -1.5
v 5.5 1 -1.5
v 6.5 1 -1.5
v 8.5 1 -1.5
v 9.5 1 -1.5
v 11.5 1 -1.5
v 12.5 1 -1.5
v 14.5 1 -1.5
v 15.5 1 -1.5
v 17.5 1 -1.5
v 18.5 1 -1.5
v 20.5 1 -1.5
v 21.5 1 -1.5
v 22.5 1 -1.5
v 22.5 2 -1.5
v -7.5 1 4.5
v -7.5 2 4.5
v -6.5 1 4.5
v -6.5 2 4.5
v -5.5 1 4.5
v -5.5 2 4.5
v -3.5 1 4.5
v -2.5 1 4.5
v -0.5 1 4.5
v 0.5 1 4.5
v 2.5 1 4.5
v 3.5 1 4.5
v 5.5 1 4.5
v 6.5 1 4.5
v 8.5 1 4.5
v 9.5 1 4.5
v 11.5 1 4.5
v 12.5 1 4.5
v 14.5 1 4.5
v 15.5 1 4.5
v 17.5 1 4.5
v 18.5 1 4.5
v 20.5 1 4.5
v 21.5 1 4.5
v 22.5 1 4.5
v 22.5 2 4.5
v -7.5 1 -2.5
v -7.5 2 -2.5
v -6.5 0 -2.5
v -6.5 1 -2.5
v -6.5 2 -2.5
v -5.5 0 -2.5
v -5.5 1 -2.5
v -5.5 2 -2.5
v -3.5 0 -2.5
v -3.5 1 -2.5
v -2.5 0 -2.5
v -2.5 1 -2.5
v -0.5 0 -2.5
v -0.5 1 -2.5
v 0.5 0 -2.5
v 0.5 1 -2.5
v 2.5 0 -2.5
v 2.5 1 -2.5
v 3.5 0 -2.5
v 3.5 1 -2.5
v 5.5 0 -2.5
v 5.5 1 -2.5
v 6.5 0 -2.5
v 6.5 1 -2.5
v 8.5 0 -2.5
v 8.5 1 -2.5
v 9.5 0 -2.5
v 9.5 1 -2.5
v 11.5 0 -2.5
v 11.5 1 -2.5
v 12.5 0 -2.5
v 12.5 1 -2.5
v 14.5 0 -2.5
v 14.5 1 -2.5
v 15.5 0 -2.5
v 15.5 1 -2.5
v 17.5 0 -2.5
v 17.5 1 -2.5
v 18.5 0 -2.5
v 18.5 1 -2.5
v 20.5 0 -2.5
v 20.5 1 -2.5
v 21.5 0 -2.5
v 21.5 1 -2.5
v 22.5 1 -2.5
v 22.5 2 -2.5
v -6.5 0 5.5
v -5.5 0 5.5
v -3.5 0 5.5
v -2.5 0 5.5
v -0.5 0 5.5
v 0.5 0 5.5
v 2.5 0 5.5
v 3.5 0 5.5
v 5.5 0 5.5
v 6.5 0 5.5
v 8.5 0 5.5
v 9.5 0 5.5
v 11.5 0 5.5
v 12.5 0 5.5
v 14.5 0 5.5
v 15.5 0 5.5
v 17.5 0 5.5
v 18.5 0 5.5
v 20.5 0 5.5
v 21.5 0 5.5
v -6.5 0 -2.5
v -5.5 0 -2.5
v -3.5 0 -2.5
v -2.5 0 -2.5
v -0.5 0 -2.5
v 0.5 0 -2.5
v 2.5 0 -2.5
v 3.5 0 -2.5
v 5.5 0 -2.5
v 6.5 0 -2.5
v 8.5 0 -2.5
v 9.5 0 -2.5
v 11.5 0 -2.5
v 12.5 0 -2.5
v 14.5 0 -2.5
v 15.5 0 -2.5
v 17.5 0 -2.5
v 18.5 0 -2.5
v 20.5 0 -2.5
v 21.5 0 -2.5
v -7.5 1 5.5
v -6.5 1 5.5
v -5.5 1 5.5
v -3.5 1 5.5
v -2.5 1 5.5
v -0.5 1 5.5
v 0.5 1 5.5
v 2.5 1 5.5
v 3.5 1 5.5
v 5.5 1 5.5
v 6.5 1 5.5
v 8.5 1 5.5
v 9.5 1 5.5
v 11.5 1 5.5
v 12.5 1 5.5
v 14.5 1 5.5
v 15.5 1 5.5
v 17.5 1 5.5
v 18.5 1 5.5
v 20.5 1 5.5
v 21.5 1 5.5
v 22.5 1 5.5
v -7.5 1 4.5
v -6.5 1 4.5
v -5.5 1 4.5
v -3.5 1 4.5
v -2.5 1 4.5
v -0.5 1 4.5
v 0.5 1 4.5
v 2.5 1 4.5
v 3.5 1 4.5
v 5.5 1 4.5
v 6.5 1 4.5
v 8.5 1 4.5
v 9.5 1 4.5
v 11.5 1 4.5
v 12.5 1 4.5
v 14.5 1 4.5
v 15.5 1 4.5
v 17.5 1 4.5
v 18.5 1 4.5
v 20.5 1 4.5
v 21.5 1 4.5
v 22.5 1 4.5
v -7.5 1 -1.5
v -6.5 1 -1.5
v -5.5 1 -1.5
v -3.5 1 -1.5
v -2.5 1 -1.5
v -0.5 1 -1.5
v 0.5 1 -1.5
v 2.5 1 -1.5
v 3.5 1 -1.5
v 5.5 1 -1.5
v 6.5 1 -1.5
v 8.5 1 -1.5
v 9.5 1 -1.5
v 11.5 1 -1.5
v 12.5 1 -1.5
v 14.5 1 -1.5
v 15.5 1 -1.5
v 17.5 1 -1.5
v 18.5 1 -1.5
v 20.5 1 -1.5
v 21.5 1 -1.5
v 22.5 1 -1.5
v -7.5 1 -2.5
v -6.5 1 -2.5
v -5.5 1 -2.5
v -3.5 1 -2.5
v -2.5 1 -2.5
v -0.5 1 -2.5
v 0.5 1 -2.5
v 2.5 1 -2.5
v 3.5 1 -2.5
v 5.5 1 -2.5
v 6.5 1 -2.5
v 8.5 1 -2.5
v 9.5 1 -2.5
v 11.5 1 -2.5
v 12.5 1 -2.5
v 14.5 1 -2.5
v 15.5 1 -2.5
v 17.5 1 -2.5
v 18.5 1 -2.5
v 20.5 1 -2.5
v 21.5 1 -2.5
v 22.5 1 -2.5
v -6.5 1 4.5
v -5.5 1 4.5
v -3.5 1 4.5
v -2.5 1 4.5
v -0.5 1 4.5
v 0.5 1 4.5
v 2.5 1 4.5
v 3.5 1 4.5
v 5.5 1 4.5
v 6.5 1 4.5
v 8.5 1 4.5
v 9.5 1 4.5
v 11.5 1 4.5
v 12.5 1 4.5
v 14.5 1 4.5
v 15.5 1 4.5
v 17.5 1 4.5
v 18.5 1 4.5
v 20.5 1 4.5
v 21.5 1 4.5
v -6.5 1 -1.5
v -5.5 1 -1.5
v -3.5 1 -1.5
v -2.5 1 -1.5
v -0.5 1 -1.5
v 0.5 1 -1.5
v 2.5 1 -1.5
v 3.5 1 -1.5
v 5.5 1 -1.5
v 6.5 1 -1.5
v 8.5 1 -1.5
v 9.5 1 -1.5
v 11.5 1 -1.5
v 12.5 1 -1.5
v 14.5 1 -1.5
v 15.5 1 -1.5
v 17.5 1 -1.5
v 18.5 1 -1.5
v 20.5 1 -1.5
v 21.5 1 -1.5
v -7.5 2 5.5
v -6.5 2 5.5
v -5.5 2 5.5
v 22.5 2 5.5
v -7.5 2 4.5
v -6.5 2 4.5
v -5.5 2 4.5
v 22.5 2 4.5
v -7.5 2 -1.5
v -6.5 2 -1.5
v -5.5 2 -1.5
v 22.5 2 -1.5
v -7.5 2 -2.5
v -6.5 2 -2.5
v -5.5 2 -2.5
v 22.5 2 -2.5

# faces
f 5/2/1 2/2/1 1/2/1
f 6/2/1 2/2/1 5/2/1
f 7/2/1 4/2/1 3/2/1
f 8/2/1 4/2/1 7/2/1
f 11/1/1 10/1/1 9/1/1
f 12/1/1 10/1/1 11/1/1
f 13/1/1 10/1/1 12/1/1
f 14/1/1 10/1/1 13/1/1
f 17/1/1 16/1/1 15/1/1
f 18/1/1 16/1/1 17/1/1
f 19/1/1 16/1/1 18/1/1
f 20/1/1 16/1/1 19/1/1
f 23/1/1 22/1/1 21/1/1
f 24/1/1 22/1/1 23/1/1
f 25/1/1 22/1/1 24/1/1
f 26/1/1 22/1/1 25/1/1
f 29/1/1 28/1/1 27/1/1
f 30/1/1 28/1/1 29/1/1
f 31/1/1 28/1/1 30/1/1
f 32/1/1 28/1/1 31/1/1
f 35/1/1 34/1/1 33/1/1
f 36/1/1 34/1/1 35/1/1
f 37/1/1 34/1/1 36/1/1
f 38/1/1 34/1/1 37/1/1
f 41/1/1 40/1/1 39/1/1
f 42/1/1 40/1/1 41/1/1
f 43/1/1 40/1/1 42/1/1
f 44/1/1 40/1/1 43/1/1
f 47/1/1 46/1/1 45/1/1
f 48/1/1 46/1/1 47/1/1
f 49/1/1 46/1/1 48/1/1
f 50/1/1 46/1/1 49/1/1
f 53/1/1 52/1/1 51/1/1
f 54/1/1 52/1/1 53/1/1
f 55/1/1 52/1/1 54/1/1
f 56/1/1 52/1/1 55/1/1
f 59/1/1 58/1/1 57/1/1
f 60/1/1 58/1/1 59/1/1
f 61/1/1 58/1/1 60/1/1
f 62/1/1 58/1/1 61/1/1
f 65/1/1 64/1/1 63/1/1
f 66/1/1 64/1/1 65/1/1
f 67/1/1 64/1/1 66/1/1
f 68/1/1 64/1/1 67/1/1
f 69/1/2 70/1/2 71/1/2
f 71/1/2 70/1/2 72/1/2
f 72/1/2 70/1/2 73/1/2
f 73/1/2 70/1/2 74/1/2
f 75/1/2 76/1/2 77/1/2
f 77/1/2 76/1/2 78/1/2
f 78/1/2 76/1/2 79/1/2
f 79/1/2 76/1/2 80/1/2
f 81/1/2 82/1/2 83/1/2
f 83/1/2 82/1/2 84/1/2
f 84/1/2 82/1/2 85/1/2
f 85/1/2 82/1/2 86/1/2
f 87/1/2 88/1/2 89/1/2
f 89/1/2 88/1/2 90/1/2
f 90/1/2 88/1/2 91/1/2
f 91/1/2 88/1/2 92/1/2
f 93/1/2 94/1/2 95/1/2
f 95/1/2 94/1/2 96/1/2
f 96/1/2 94/1/2 97/1/2
f 97/1/2 94/1/2 98/1/2
f 99/1/2 100/1/2 101/1/2
f 101/1/2 100/1/2 102/1/2
f 102/1/2 100/1/2 103/1/2
f 103/1/2 100/1/2 104/1/2
f 105/1/2 106/1/2 107/1/2
f 107/1/2 106/1/2 108/1/2
f 108/1/2 106/1/2 109/1/2
f 109/1/2 106/1/2 110/1/2
f 111/1/2 112/1/2 113/1/2
f 113/1/2 112/1/2 114/1/2
f 114/1/2 112/1/2 115/1/2
f 115/1/2 112/1/2 116/1/2
f 117/1/2 118/1/2 119/1/2
f 119/1/2 118/1/2 120/1/2
f 120/1/2 118/1/2 121/1/2
f 121/1/2 118/1/2 122/1/2
f 123/1/2 124/1/2 125/1/2
f 125/1/2 124/1/2 126/1/2
f 126/1/2 124/1/2 127/1/2
f 127/1/2 124/1/2 128/1/2
f 129/2/2 130/2/2 133/2/2
f 133/2/2 130/2/2 134/2/2
f 131/2/2 132/2/2 135/2/2
f 135/2/2 132/2/2 136/2/2
f 140/2/3 138/2/3 137/2/3
f 141/2/3 138/2/3 140/2/3
f 142/1/3 140/1/3 139/1/3
f 143/3/3 141/3/3 140/3/3
f 143/1/3 140/1/3 142/1/3
f 144/3/3 141/3/3 143/3/3
f 146/2/3 144/2/3 143/2/3
f 147/1/3 146/1/3 145/1/3
f 148/2/3 144/2/3 146/2/3
f 148/1/3 146/1/3 147/1/3
f 150/2/3 144/2/3 148/2/3
f 151/1/3 150/1/3 149/1/3
f 152/2/3 144/2/3 150/2/3
f 152/1/3 150/1/3 151/1/3
f 154/2/3 144/2/3 152/2/3
f 155/1/3 154/1/3 153/1/3
f 156/2/3 144/2/3 154/2/3
f 156/1/3 154/1/3 155/1/3
f 158/2/3 144/2/3 156/2/3
f 159/1/3 158/1/3 157/1/3
f 160/2/3 144/2/3 158/2/3
f 160/1/3 158/1/3 159/1/3
f 162/2/3 144/2/3 160/2/3
f 163/1/3 162/1/3 161/1/3
f 164/2/3 144/2/3 162/2/3
f 164/1/3 162/1/3 163/1/3
f 166/2/3 144/2/3 164/2/3
f 167/1/3 166/1/3 165/1/3
f 168/2/3 144/2/3 166/2/3
f 168/1/3 166/1/3 167/1/3
f 170/2/3 144/2/3 168/2/3
f 171/1/3 170/1/3 169/1/3
f 172/2/3 144/2/3 170/2/3
f 172/1/3 170/1/3 171/1/3
f 174/2/3 144/2/3 172/2/3
f 175/1/3 174/1/3 173/1/3
f 176/2/3 144/2/3 174/2/3
f 176/1/3 174/1/3 175/1/3
f 178/2/3 144/2/3 176/2/3
f 179/1/3 178/1/3 177/1/3
f 180/2/3 144/2/3 178/2/3
f 180/1/3 178/1/3 179/1/3
f 181/2/3 144/2/3 180/2/3
f 182/2/3 144/2/3 181/2/3
f 185/2/3 184/2/3 183/2/3
f 186/2/3 184/2/3 185/2/3
f 187/3/3 186/3/3 185/3/3
f 188/3/3 186/3/3 187/3/3
f 189/2/3 188/2/3 187/2/3
f 190/2/3 188/2/3 189/2/3
f 191/2/3 188/2/3 190/2/3
f 192/2/3 188/2/3 191/2/3
f 193/2/3 188/2/3 192/2/3
f 194/2/3 188/2/3 193/2/3
f 195/2/3 188/2/3 194/2/3
f 196/2/3 188/2/3 195/2/3
f 197/2/3 188/2/3 196/2/3
f 198/2/3 188/2/3 197/2/3
f 199/2/3 188/2/3 198/2/3
f 200/2/3 188/2/3 199/2/3
f 201/2/3 188/2/3 200/2/3
f 202/2/3 188/2/3 201/2/3
f 203/2/3 188/2/3 202/2/3
f 204/2/3 188/2/3 203/2/3
f 205/2/3 188/2/3 204/2/3
f 206/2/3 188/2/3 205/2/3
f 207/2/3 188/2/3 206/2/3
f 208/2/3 188/2/3 207/2/3
f 209/2/4 210/2/4 211/2/4
f 211/2/4 210/2/4 212/2/4
f 211/3/4 212/3/4 213/3/4
f 213/3/4 212/3/4 214/3/4
f 213/2/4 214/2/4 215/2/4
f 215/2/4 214/2/4 216/2/4
f 216/2/4 214/2/4 217/2/4
f 217/2/4 214/2/4 218/2/4
f 218/2/4 214/2/4 219/2/4
f 219/2/4 214/2/4 220/2/4
f 220/2/4 214/2/4 221/2/4
f 221/2/4 214/2/4 222/2/4
f 222/2/4 214/2/4 223/2/4
f 223/2/4 214/2/4 224/2/4
f 224/2/4 214/2/4 225/2/4
f 225/2/4 214/2/4 226/2/4
f 226/2/4 214/2/4 227/2/4
f 227/2/4 214/2/4 228/2/4
f 228/2/4 214/2/4 229/2/4
f 229/2/4 214/2/4 230/2/4
f 230/2/4 214/2/4 231/2/4
f 231/2/4 214/2/4 232/2/4
f 232/2/4 214/2/4 233/2/4
f 233/2/4 214/2/4 234/2/4
f 235/2/4 236/2/4 238/2/4
f 238/2/4 236/2/4 239/2/4
f 237/1/4 238/1/4 240/1/4
f 238/3/4 239/3/4 241/3/4
f 240/1/4 238/1/4 241/1/4
f 241/3/4 239/3/4 242/3/4
f 241/2/4 242/2/4 244/2/4
f 243/1/4 244/1/4 245/1/4
f 244/2/4 242/2/4 246/2/4
f 245/1/4 244/1/4 246/1/4
f 246/2/4 242/2/4 248/2/4
f 247/1/4 248/1/4 249/1/4
f 248/2/4 242/2/4 250/2/4
f 249/1/4 248/1/4 250/1/4
f 250/2/4 242/2/4 252/2/4
f 251/1/4 252/1/4 253/1/4
f 252/2/4 242/2/4 254/2/4
f 253/1/4 252/1/4 254/1/4
f 254/2/4 242/2/4 256/2/4
f 255/1/4 256/1/4 257/1/4
f 256/2/4 242/2/4 258/2/4
f 257/1/4 256/1/4 258/1/4
f 258/2/4 242/2/4 260/2/4
f 259/1/4 260/1/4 261/1/4
f 260/2/4 242/2/4 262/2/4
f 261/1/4 260/1/4 262/1/4
f 262/2/4 242/2/4 264/2/4
f 263/1/4 264/1/4 265/1/4
f 264/2/4 242/2/4 266/2/4
f 265/1/4 264/1/4 266/1/4
f 266/2/4 242/2/4 268/2/4
f 267/1/4 268/1/4 269/1/4
f 268/2/4 242/2/4 270/2/4
f 269/1/4 268/1/4 270/1/4
f 270/2/4 242/2/4 272/2/4
f 271/1/4 272/1/4 273/1/4
f 272/2/4 242/2/4 274/2/4
f 273/1/4 272/1/4 274/1/4
f 274/2/4 242/2/4 276/2/4
f 275/1/4 276/1/4 277/1/4
f 276/2/4 242/2/4 278/2/4
f 277/1/4 276/1/4 278/1/4
f 278/2/4 242/2/4 279/2/4
f 279/2/4 242/2/4 280/2/4
f 301/1/5 282/1/5 281/1/5
f 302/1/5 282/1/5 301/1/5
f 303/1/5 284/1/5 283/1/5
f 304/1/5 284/1/5 303/1/5
f 305/1/5 286/1/5 285/1/5
f 306/1/5 286/1/5 305/1/5
f 307/1/5 288/1/5 287/1/5
f 308/1/5 288/1/5 307/1/5
f 309/1/5 290/1/5 289/1/5
f 310/1/5 290/1/5 309/1/5
f 311/1/5 292/1/5 291/1/5
f 312/1/5 292/1/5 311/1/5
f 313/1/5 294/1/5 293/1/5
f 314/1/5 294/1/5 313/1/5
f 315/1/5 296/1/5 295/1/5
f 316/1/5 296/1/5 315/1/5
f 317/1/5 298/1/5 297/1/5
f 318/1/5 298/1/5 317/1/5
f 319/1/5 300/1/5 299/1/5
f 320/1/5 300/1/5 319/1/5
f 343/2/5 322/2/5 321/2/5
f 344/2/5 322/2/5 343/2/5
f 345/2/5 324/2/5 323/2/5
f 346/2/5 324/2/5 345/2/5
f 347/2/5 326/2/5 325/2/5
f 348/2/5 326/2/5 347/2/5
f 349/2/5 328/2/5 327/2/5
f 350/2/5 328/2/5 349/2/5
f 351/2/5 330/2/5 329/2/5
f 352/2/5 330/2/5 351/2/5
f 353/2/5 332/2/5 331/2/5
f 354/2/5 332/2/5 353/2/5
f 355/2/5 334/2/5 333/2/5
f 356/2/5 334/2/5 355/2/5
f 357/2/5 336/2/5 335/2/5
f 358/2/5 336/2/5 357/2/5
f 359/2/5 338/2/5 337/2/5
f 360/2/5 338/2/5 359/2/5
f 361/2/5 340/2/5 339/2/5
f 362/2/5 340/2/5 361/2/5
f 363/2/5 342/2/5 341/2/5
f 364/2/5 342/2/5 363/2/5
f 387/2/5 366/2/5 365/2/5
f 388/2/5 366/2/5 387/2/5
f 389/2/5 368/2/5 367/2/5
f 390/2/5 368/2/5 389/2/5
f 391/2/5 370/2/5 369/2/5
f 392/2/5 370/2/5 391/2/5
f 393/2/5 372/2/5 371/2/5
f 394/2/5 372/2/5 393/2/5
f 395/2/5 374/2/5 373/2/5
f 396/2/5 374/2/5 395/2/5
f 397/2/5 376/2/5 375/2/5
f 398/2/5 376/2/5 397/2/5
f 399/2/5 378/2/5 377/2/5
f 400/2/5 378/2/5 399/2/5
f 401/2/5 380/2/5 379/2/5
f 402/2/5 380/2/5 401/2/5
f 403/2/5 382/2/5 381/2/5
f 404/2/5 382/2/5 403/2/5
f 405/2/5 384/2/5 383/2/5
f 406/2/5 384/2/5 405/2/5
f 407/2/5 386/2/5 385/2/5
f 408/2/5 386/2/5 407/2/5
f 409/1/6 410/1/6 429/1/6
f 429/1/6 410/1/6 430/1/6
f 411/1/6 412/1/6 431/1/6
f 431/1/6 412/1/6 432/1/6
f 413/1/6 414/1/6 433/1/6
f 433/1/6 414/1/6 434/1/6
f 415/1/6 416/1/6 435/1/6
f 435/1/6 416/1/6 436/1/6
f 417/1/6 418/1/6 437/1/6
f 437/1/6 418/1/6 438/1/6
f 419/1/6 420/1/6 439/1/6
f 439/1/6 420/1/6 440/1/6
f 421/1/6 422/1/6 441/1/6
f 441/1/6 422/1/6 442/1/6
f 423/1/6 424/1/6 443/1/6
f 443/1/6 424/1/6 444/1/6
f 425/1/6 426/1/6 445/1/6
f 445/1/6 426/1/6 446/1/6
f 427/1/6 428/1/6 447/1/6
f 447/1/6 428/1/6 448/1/6
f 449/2/6 450/2/6 453/2/6
f 450/3/6 451/3/6 454/3/6
f 453/2/6 450/2/6 454/2/6
f 451/2/6 452/2/6 455/2/6
f 454/3/6 451/3/6 455/3/6
f 455/2/6 452/2/6 456/2/6
f 457/2/6 458/2/6 461/2/6
f 458/3/6 459/3/6 462/3/6
f 461/2/6 458/2/6 462/2/6
f 459/2/6 460/2/6 463/2/6
f 462/3/6 459/3/6 463/3/6
f 463/2/6 460/2/6 464/2/6
